<svg width="28" height="28" viewBox="0 0 28 28" fill="none" xmlns="http://www.w3.org/2000/svg">
<g clip-path="url(#clip0_366_4542)">
<g clip-path="url(#clip1_366_4542)">
<path d="M27.3283 21.8662C27.3283 21.8662 26.4259 22.3834 25.3091 22.181C25.0949 22.1473 24.8918 22.0686 24.6888 21.9674C26.3582 19.7412 27.3509 16.9866 27.3509 13.9958C27.3509 6.60894 21.3385 0.616211 13.9275 0.616211C6.51646 0.616211 0.50415 6.60894 0.50415 13.9958C0.50415 21.3828 6.51646 27.3755 13.9275 27.3755C16.2738 27.3755 18.4734 26.7683 20.391 25.7227C21.0227 26.3861 21.9025 27.0832 22.9742 27.2967C24.9933 27.679 26.4597 26.7571 27.0576 25.5203C27.5651 24.441 27.5991 23.1592 27.3283 21.8662ZM13.9163 21.72C9.65233 21.72 6.17806 18.2571 6.17806 14.007C6.17806 9.75708 9.65233 6.29412 13.9163 6.29412C18.1801 6.29412 21.6657 9.74585 21.6657 13.9958C21.6657 15.3001 21.3385 16.5369 20.752 17.6162C20.5828 17.4025 20.4361 17.2002 20.3346 17.0653C19.9398 16.5256 19.5337 15.9747 19.1389 15.4125C18.62 14.6817 17.4243 13.22 15.7775 12.9052C13.7583 12.5229 12.2919 13.4449 11.694 14.6817C11.1864 15.7611 11.1526 17.0428 11.412 18.3245C11.412 18.3245 12.3144 17.8073 13.4312 18.0097C14.2433 18.1559 15.0104 18.7743 15.9917 19.9885C16.0707 20.0898 16.4092 20.5394 16.8603 21.1242C15.9579 21.5065 14.9653 21.72 13.9163 21.72Z" fill="white"/>
</g>
</g>
<defs>
<clipPath id="clip0_366_4542">
<rect width="28" height="28" fill="white"/>
</clipPath>
<clipPath id="clip1_366_4542">
<rect width="26.992" height="26.768" fill="white" transform="translate(0.504944 0.616211)"/>
</clipPath>
</defs>
</svg>
